PathFileType	4	(X/Y/Z)	 Static_Ext01.trc
DataRate	CameraRate	NumFrames	NumMarkers	Units	OrigDataRate	OrigDataStartFrame	OrigNumFrames
250	250	9	38	m	250	159	423
Frame#	Time	RASI			LASI			RPSI			LPSI			RAIC			LAIC			RLFC			RMFC			RTH1			RTH2			RTH3			RLMAL			RMMAL			RTB1			RTB2			RTB3			RCAL			RMT1			RMT5			LLFC			LMFC			LTH1			LTH2			LTH3			LLMAL			LMMAL			LTB1			LTB2			LTB3			LCAL			LMT1			LMT5			C7			T10			CLAV			STRN			RACR			LACR			
		X1	Y1	Z1	X2	Y2	Z2	X3	Y3	Z3	X4	Y4	Z4	X5	Y5	Z5	X6	Y6	Z6	X7	Y7	Z7	X8	Y8	Z8	X9	Y9	Z9	X10	Y10	Z10	X11	Y11	Z11	X12	Y12	Z12	X13	Y13	Z13	X14	Y14	Z14	X15	Y15	Z15	X16	Y16	Z16	X17	Y17	Z17	X18	Y18	Z18	X19	Y19	Z19	X20	Y20	Z20	X21	Y21	Z21	X22	Y22	Z22	X23	Y23	Z23	X24	Y24	Z24	X25	Y25	Z25	X26	Y26	Z26	X27	Y27	Z27	X28	Y28	Z28	X29	Y29	Z29	X30	Y30	Z30	X31	Y31	Z31	X32	Y32	Z32	X33	Y33	Z33	X34	Y34	Z34	X35	Y35	Z35	X36	Y36	Z36	X37	Y37	Z37	X38	Y38	Z38	
159	0.6360	0.380987	0.985698	0.426767	0.373099	0.981848	0.188257	0.198121	1.047807	0.358008	0.196502	1.051805	0.285365	0.303509	1.078928	0.469303	0.307269	1.077504	0.160777	0.252822	0.503359	0.465415	0.238824	0.495073	0.361873	0.278800	0.869550	0.502830	0.322012	0.774732	0.491471	0.260524	0.692565	0.494692	0.174178	0.095540	0.480142	0.200065	0.103165	0.396623	0.249779	0.369495	0.405619	0.252655	0.307565	0.462503	0.229488	0.234519	0.417018	0.110347	0.040255	0.419930	0.325866	0.046180	0.414669	0.313621	0.041709	0.507834	0.251180	0.517602	0.158917	0.251304	0.501973	0.269692	0.306282	0.863887	0.132147	0.344379	0.768112	0.148711	0.278365	0.686495	0.131702	0.174528	0.100202	0.141046	0.205258	0.102981	0.222499	0.258089	0.368959	0.215751	0.248847	0.301780	0.159605	0.231001	0.234802	0.209653	0.106179	0.042459	0.198694	0.328101	0.044023	0.196379	0.308114	0.045872	0.109899	0.219112	1.521325	0.309140	0.176969	1.225326	0.310918	0.330761	1.445874	0.315556	0.394883	1.239246	0.317569	0.225221	1.504263	0.456690	0.246059	1.514169	0.169106	
160	0.6400	0.380960	0.985732	0.426905	0.372981	0.981897	0.188542	0.198103	1.047776	0.358087	0.196491	1.051763	0.285441	0.303439	1.078966	0.469409	0.307330	1.077524	0.160902	0.252823	0.503334	0.465491	0.238839	0.495077	0.361948	0.278742	0.869564	0.502910	0.321974	0.774719	0.491615	0.260478	0.692593	0.494717	0.174175	0.095510	0.480139	0.200069	0.103149	0.396675	0.249831	0.369444	0.405884	0.252675	0.307497	0.462542	0.229467	0.234517	0.417014	0.110352	0.040252	0.419932	0.325875	0.046033	0.414684	0.313627	0.041685	0.507849	0.251213	0.517601	0.158958	0.251348	0.501967	0.269739	0.306409	0.863874	0.132275	0.344535	0.768108	0.148808	0.278459	0.686505	0.131757	0.174542	0.100188	0.141055	0.205278	0.102987	0.222527	0.258121	0.368911	0.215811	0.248886	0.301798	0.159623	0.231004	0.234781	0.209700	0.106196	0.042451	0.198724	0.328262	0.044178	0.196473	0.308125	0.045847	0.109894	0.219110	1.521336	0.309195	0.176911	1.225335	0.311001	0.330779	1.445911	0.315651	0.394870	1.239250	0.317724	0.225200	1.504296	0.456750	0.246145	1.514202	0.169170	
161	0.6440	0.380957	0.985752	0.427082	0.373040	0.981917	0.188683	0.198090	1.047735	0.358164	0.196502	1.051725	0.285516	0.303382	1.078977	0.469521	0.307386	1.077553	0.161006	0.252833	0.503333	0.465581	0.238823	0.495057	0.361989	0.278668	0.869567	0.502975	0.321923	0.774742	0.491707	0.260437	0.692614	0.494742	0.174152	0.095502	0.480154	0.200054	0.103160	0.396648	0.249828	0.369431	0.405933	0.252683	0.307490	0.462579	0.229511	0.234504	0.417076	0.110351	0.040255	0.419919	0.325914	0.046155	0.414726	0.313611	0.041709	0.507870	0.251298	0.517590	0.159042	0.251398	0.501939	0.269783	0.306493	0.863885	0.132356	0.344600	0.768092	0.148963	0.278541	0.686496	0.131824	0.174535	0.100217	0.141056	0.205307	0.102951	0.222573	0.258193	0.368924	0.215860	0.248897	0.301784	0.159661	0.231046	0.234770	0.209709	0.106189	0.042458	0.198685	0.328269	0.044184	0.196476	0.308135	0.045844	0.109892	0.219117	1.521330	0.309243	0.176890	1.225346	0.311058	0.330812	1.445956	0.315779	0.394861	1.239281	0.317851	0.225170	1.504322	0.456783	0.246230	1.514205	0.169254	
162	0.6480	0.380930	0.985782	0.427201	0.373100	0.981934	0.188811	0.198079	1.047705	0.358239	0.196507	1.051707	0.285593	0.303295	1.078981	0.469631	0.307411	1.077563	0.161116	0.252791	0.503342	0.465631	0.238831	0.495088	0.362075	0.278625	0.869606	0.503066	0.321777	0.774778	0.491760	0.260400	0.692634	0.494816	0.174158	0.095494	0.480159	0.200058	0.103154	0.396660	0.249818	0.369427	0.405965	0.252698	0.307545	0.462736	0.229458	0.234502	0.417090	0.110341	0.040229	0.419919	0.325873	0.046202	0.414665	0.313624	0.041674	0.507876	0.251339	0.517584	0.159079	0.251433	0.501943	0.269848	0.306608	0.863880	0.132459	0.343604	0.768152	0.149080	0.278586	0.686520	0.131898	0.174557	0.100245	0.141058	0.205295	0.102959	0.222537	0.258244	0.368897	0.215936	0.248909	0.301810	0.159687	0.231082	0.234790	0.209705	0.106201	0.042467	0.198703	0.328263	0.044185	0.196464	0.308132	0.045853	0.109897	0.219107	1.521330	0.309310	0.176829	1.225369	0.311111	0.330815	1.445989	0.315870	0.394862	1.239315	0.318029	0.225146	1.504286	0.456845	0.246292	1.514206	0.169340	
163	0.6520	0.380901	0.985816	0.427321	0.373151	0.981960	0.188939	0.198045	1.047670	0.358325	0.196487	1.051674	0.285694	0.303245	1.078969	0.469755	0.307448	1.077569	0.161247	0.252797	0.503330	0.465709	0.238828	0.495078	0.362121	0.278551	0.869593	0.503144	0.321723	0.774784	0.491876	0.260364	0.692638	0.494852	0.174146	0.095489	0.480184	0.200051	0.103151	0.396680	0.250172	0.369626	0.405772	0.252669	0.307498	0.462664	0.229514	0.234500	0.417159	0.110336	0.040230	0.419919	0.325856	0.046192	0.414644	0.313620	0.041677	0.507860	0.251385	0.517565	0.159141	0.251492	0.501947	0.269908	0.306679	0.863890	0.132531	0.343707	0.768152	0.149213	0.278683	0.686510	0.131980	0.174576	0.100212	0.141050	0.205300	0.102950	0.222535	0.258314	0.368889	0.215981	0.248938	0.301803	0.159708	0.231079	0.234783	0.209735	0.106181	0.042467	0.198701	0.328256	0.044173	0.196473	0.308113	0.045865	0.109873	0.219122	1.521337	0.309377	0.176792	1.225377	0.311164	0.330861	1.446035	0.316017	0.394857	1.239314	0.318176	0.225130	1.504321	0.456930	0.246353	1.514207	0.169412	
164	0.6560	0.380886	0.985808	0.427470	0.373198	0.981986	0.189053	0.198040	1.047633	0.358403	0.196487	1.051631	0.285758	0.303174	1.078982	0.469844	0.307452	1.077588	0.161315	0.252803	0.503314	0.465786	0.238852	0.495099	0.362200	0.278499	0.869600	0.503191	0.321697	0.774783	0.491966	0.260327	0.692649	0.494906	0.174137	0.095479	0.480173	0.200037	0.103150	0.396668	0.249760	0.369464	0.405832	0.252708	0.307508	0.462741	0.229484	0.234491	0.417150	0.110333	0.040213	0.419926	0.325822	0.046189	0.414691	0.313617	0.041679	0.507850	0.251459	0.517586	0.159185	0.251540	0.501940	0.269971	0.306791	0.863888	0.132630	0.343781	0.768140	0.149353	0.278779	0.686495	0.132016	0.174573	0.100227	0.141053	0.205305	0.102896	0.222571	0.258355	0.368885	0.215997	0.248970	0.301803	0.159744	0.231107	0.234763	0.209762	0.106200	0.042474	0.198705	0.328128	0.044014	0.196445	0.308135	0.045848	0.109897	0.219130	1.521350	0.309433	0.176763	1.225389	0.311210	0.330864	1.446043	0.316094	0.394854	1.239338	0.318296	0.225123	1.504351	0.456978	0.246437	1.514220	0.169487	
165	0.6600	0.380870	0.985842	0.427630	0.373254	0.982016	0.189188	0.198014	1.047606	0.358476	0.196494	1.051593	0.285834	0.302998	1.078987	0.470084	0.307486	1.077593	0.161449	0.252782	0.503302	0.465862	0.238827	0.495103	0.362227	0.278439	0.869621	0.503265	0.321734	0.774834	0.492099	0.260316	0.692672	0.494975	0.174128	0.095463	0.480184	0.200048	0.103118	0.396687	0.249812	0.369438	0.406098	0.252686	0.307508	0.462818	0.229488	0.234462	0.417170	0.110334	0.040216	0.419942	0.325849	0.046117	0.414726	0.313607	0.041678	0.507848	0.251518	0.517569	0.159258	0.251576	0.501922	0.270022	0.306875	0.863879	0.132717	0.343858	0.768138	0.149468	0.278838	0.686483	0.132091	0.174533	0.100297	0.141021	0.205298	0.102998	0.222571	0.258472	0.368891	0.216135	0.248997	0.301799	0.159773	0.231124	0.234778	0.209788	0.106197	0.042483	0.198702	0.328274	0.044166	0.196461	0.308126	0.045840	0.109894	0.219127	1.521359	0.309491	0.176724	1.225406	0.311291	0.330885	1.446038	0.316215	0.394835	1.239365	0.318439	0.225104	1.504401	0.457071	0.246512	1.514222	0.169561	
166	0.6640	0.380844	0.985867	0.427738	0.373291	0.982038	0.189315	0.197998	1.047555	0.358573	0.196468	1.051566	0.285935	0.302939	1.078991	0.470187	0.307485	1.077623	0.161515	0.252762	0.503311	0.465902	0.238859	0.495100	0.362300	0.278387	0.869635	0.503339	0.321704	0.774844	0.492223	0.260242	0.692709	0.494995	0.174197	0.095428	0.480253	0.200023	0.103155	0.396679	0.249789	0.369410	0.406129	0.252679	0.307485	0.462825	0.229463	0.234474	0.417199	0.110331	0.040198	0.419932	0.325782	0.046159	0.414674	0.313616	0.041677	0.507854	0.251569	0.517552	0.159304	0.251617	0.501912	0.270072	0.306986	0.863876	0.132808	0.343940	0.768129	0.149571	0.278955	0.686488	0.132153	0.174590	0.100244	0.141038	0.205328	0.102941	0.222583	0.258071	0.368918	0.215771	0.249003	0.301804	0.159796	0.231131	0.234777	0.209809	0.106204	0.042494	0.198713	0.328256	0.044176	0.196451	0.308145	0.045830	0.109928	0.219139	1.521366	0.309569	0.176680	1.225417	0.311337	0.330910	1.446111	0.316305	0.394835	1.239380	0.318584	0.225099	1.504438	0.457127	0.246565	1.514239	0.169620	
167	0.6680	0.380817	0.985879	0.427856	0.373327	0.982055	0.189421	0.197964	1.047538	0.358649	0.196471	1.051515	0.285993	0.302891	1.078997	0.470294	0.307511	1.077632	0.161641	0.252765	0.503306	0.465974	0.238842	0.495112	0.362365	0.278345	0.869653	0.503405	0.321664	0.774870	0.492284	0.260215	0.692717	0.495034	0.174126	0.095437	0.480186	0.200029	0.103127	0.396717	0.249768	0.369404	0.406184	0.252627	0.307525	0.462912	0.229470	0.234473	0.417235	0.110322	0.040195	0.419933	0.325848	0.046179	0.414647	0.313607	0.041680	0.507862	0.251612	0.517547	0.159369	0.251659	0.501926	0.270130	0.307060	0.863851	0.132891	0.344021	0.768124	0.149716	0.279017	0.686499	0.132246	0.174592	0.100288	0.141030	0.205311	0.102973	0.222566	0.258382	0.368889	0.216086	0.249050	0.301800	0.159832	0.231154	0.234770	0.209796	0.106208	0.042498	0.198714	0.328117	0.044001	0.196430	0.308134	0.045853	0.109876	0.219138	1.521374	0.309627	0.176635	1.225435	0.311397	0.330946	1.446103	0.316423	0.394839	1.239392	0.318742	0.225068	1.504473	0.457190	0.246664	1.514251	0.169734	
